<svg width="192" height="259" viewBox="0 0 192 259" fill="none" xmlns="http://www.w3.org/2000/svg">
<path d="M70.2878 185.289C69.5411 185.289 68.8691 185.161 68.2718 184.905C67.6745 184.639 67.2051 184.265 66.8638 183.785C66.5225 183.305 66.3518 182.745 66.3518 182.105H68.3038C68.3465 182.585 68.5331 182.98 68.8638 183.289C69.2051 183.599 69.6798 183.753 70.2878 183.753C70.9171 183.753 71.4078 183.604 71.7598 183.305C72.1118 182.996 72.2878 182.601 72.2878 182.121C72.2878 181.748 72.1758 181.444 71.9518 181.209C71.7385 180.975 71.4665 180.793 71.1358 180.665C70.8158 180.537 70.3678 180.399 69.7918 180.249C69.0665 180.057 68.4745 179.865 68.0158 179.673C67.5678 179.471 67.1838 179.161 66.8638 178.745C66.5438 178.329 66.3838 177.775 66.3838 177.081C66.3838 176.441 66.5438 175.881 66.8638 175.401C67.1838 174.921 67.6318 174.553 68.2078 174.297C68.7838 174.041 69.4505 173.913 70.2078 173.913C71.2851 173.913 72.1651 174.185 72.8478 174.729C73.5411 175.263 73.9251 175.999 73.9998 176.937H71.9838C71.9518 176.532 71.7598 176.185 71.4078 175.897C71.0558 175.609 70.5918 175.465 70.0158 175.465C69.4931 175.465 69.0665 175.599 68.7358 175.865C68.4051 176.132 68.2398 176.516 68.2398 177.017C68.2398 177.359 68.3411 177.641 68.5438 177.865C68.7571 178.079 69.0238 178.249 69.3438 178.377C69.6638 178.505 70.1011 178.644 70.6558 178.793C71.3918 178.996 71.9891 179.199 72.4478 179.401C72.9171 179.604 73.3118 179.919 73.6318 180.345C73.9625 180.761 74.1278 181.321 74.1278 182.025C74.1278 182.591 73.9731 183.124 73.6638 183.625C73.3651 184.127 72.9225 184.532 72.3358 184.841C71.7598 185.14 71.0771 185.289 70.2878 185.289ZM84.264 176.361V185.177H82.44V184.137C82.152 184.5 81.7734 184.788 81.304 185.001C80.8454 185.204 80.3547 185.305 79.832 185.305C79.1387 185.305 78.5147 185.161 77.96 184.873C77.416 184.585 76.984 184.159 76.664 183.593C76.3547 183.028 76.2 182.345 76.2 181.545V176.361H78.008V181.273C78.008 182.063 78.2054 182.671 78.6 183.097C78.9947 183.513 79.5334 183.721 80.216 183.721C80.8987 183.721 81.4374 183.513 81.832 183.097C82.2374 182.671 82.44 182.063 82.44 181.273V176.361H84.264ZM88.4947 177.673C88.804 177.247 89.2253 176.9 89.7587 176.633C90.3027 176.356 90.9053 176.217 91.5667 176.217C92.3453 176.217 93.0493 176.404 93.6787 176.777C94.308 177.151 94.804 177.684 95.1667 178.377C95.5293 179.06 95.7107 179.844 95.7107 180.729C95.7107 181.615 95.5293 182.409 95.1667 183.113C94.804 183.807 94.3027 184.351 93.6627 184.745C93.0333 185.129 92.3347 185.321 91.5667 185.321C90.884 185.321 90.276 185.188 89.7427 184.921C89.22 184.655 88.804 184.313 88.4947 183.897V185.177H86.6707V173.337H88.4947V177.673ZM93.8547 180.729C93.8547 180.121 93.7267 179.599 93.4707 179.161C93.2253 178.713 92.8947 178.377 92.4787 178.153C92.0733 177.919 91.636 177.801 91.1667 177.801C90.708 177.801 90.2707 177.919 89.8547 178.153C89.4493 178.388 89.1187 178.729 88.8627 179.177C88.6173 179.625 88.4947 180.153 88.4947 180.761C88.4947 181.369 88.6173 181.903 88.8627 182.361C89.1187 182.809 89.4493 183.151 89.8547 183.385C90.2707 183.62 90.708 183.737 91.1667 183.737C91.636 183.737 92.0733 183.62 92.4787 183.385C92.8947 183.14 93.2253 182.788 93.4707 182.329C93.7267 181.871 93.8547 181.337 93.8547 180.729ZM99.6424 177.849V182.729C99.6424 183.06 99.7171 183.3 99.8664 183.449C100.026 183.588 100.293 183.657 100.666 183.657H101.786V185.177H100.346C99.5251 185.177 98.8957 184.985 98.4584 184.601C98.0211 184.217 97.8024 183.593 97.8024 182.729V177.849H96.7624V176.361H97.8024V174.169H99.6424V176.361H101.786V177.849H99.6424ZM104.396 175.193C104.065 175.193 103.788 175.081 103.564 174.857C103.34 174.633 103.228 174.356 103.228 174.025C103.228 173.695 103.34 173.417 103.564 173.193C103.788 172.969 104.065 172.857 104.396 172.857C104.716 172.857 104.988 172.969 105.212 173.193C105.436 173.417 105.548 173.695 105.548 174.025C105.548 174.356 105.436 174.633 105.212 174.857C104.988 175.081 104.716 175.193 104.396 175.193ZM105.292 176.361V185.177H103.468V176.361H105.292ZM109.814 177.849V182.729C109.814 183.06 109.889 183.3 110.038 183.449C110.198 183.588 110.465 183.657 110.838 183.657H111.958V185.177H110.518C109.697 185.177 109.068 184.985 108.63 184.601C108.193 184.217 107.974 183.593 107.974 182.729V177.849H106.934V176.361H107.974V174.169H109.814V176.361H111.958V177.849H109.814ZM115.463 173.337V185.177H113.639V173.337H115.463ZM125.938 180.553C125.938 180.884 125.917 181.183 125.874 181.449H119.138C119.191 182.153 119.453 182.719 119.922 183.145C120.391 183.572 120.967 183.785 121.65 183.785C122.631 183.785 123.325 183.375 123.73 182.553H125.698C125.431 183.364 124.946 184.031 124.242 184.553C123.549 185.065 122.685 185.321 121.65 185.321C120.807 185.321 120.05 185.135 119.378 184.761C118.717 184.377 118.194 183.844 117.81 183.161C117.437 182.468 117.25 181.668 117.25 180.761C117.25 179.855 117.431 179.06 117.794 178.377C118.167 177.684 118.685 177.151 119.346 176.777C120.018 176.404 120.786 176.217 121.65 176.217C122.482 176.217 123.223 176.399 123.874 176.761C124.525 177.124 125.031 177.636 125.394 178.297C125.757 178.948 125.938 179.7 125.938 180.553ZM124.034 179.977C124.023 179.305 123.783 178.767 123.314 178.361C122.845 177.956 122.263 177.753 121.57 177.753C120.941 177.753 120.402 177.956 119.954 178.361C119.506 178.756 119.239 179.295 119.154 179.977H124.034Z" fill="#5E6282"/>
<path d="M22.7829 131.437C22.7829 130.077 23.0962 128.857 23.7229 127.777C24.3629 126.697 25.2229 125.857 26.3029 125.257C27.3962 124.644 28.5895 124.337 29.8829 124.337C31.3629 124.337 32.6762 124.704 33.8229 125.437C34.9829 126.157 35.8229 127.184 36.3429 128.517H33.6029C33.2429 127.784 32.7429 127.237 32.1029 126.877C31.4629 126.517 30.7229 126.337 29.8829 126.337C28.9629 126.337 28.1429 126.544 27.4229 126.957C26.7029 127.371 26.1362 127.964 25.7229 128.737C25.3229 129.511 25.1229 130.411 25.1229 131.437C25.1229 132.464 25.3229 133.364 25.7229 134.137C26.1362 134.911 26.7029 135.511 27.4229 135.937C28.1429 136.351 28.9629 136.557 29.8829 136.557C30.7229 136.557 31.4629 136.377 32.1029 136.017C32.7429 135.657 33.2429 135.111 33.6029 134.377H36.3429C35.8229 135.711 34.9829 136.737 33.8229 137.457C32.6762 138.177 31.3629 138.537 29.8829 138.537C28.5762 138.537 27.3829 138.237 26.3029 137.637C25.2229 137.024 24.3629 136.177 23.7229 135.097C23.0962 134.017 22.7829 132.797 22.7829 131.437ZM48.9916 127.397V138.417H46.7116V137.117C46.3516 137.571 45.8783 137.931 45.2916 138.197C44.7183 138.451 44.1049 138.577 43.4516 138.577C42.5849 138.577 41.8049 138.397 41.1116 138.037C40.4316 137.677 39.8916 137.144 39.4916 136.437C39.1049 135.731 38.9116 134.877 38.9116 133.877V127.397H41.1716V133.537C41.1716 134.524 41.4183 135.284 41.9116 135.817C42.4049 136.337 43.0783 136.597 43.9316 136.597C44.7849 136.597 45.4583 136.337 45.9516 135.817C46.4583 135.284 46.7116 134.524 46.7116 133.537V127.397H48.9916ZM55.9999 138.597C55.1332 138.597 54.3532 138.444 53.6599 138.137C52.9799 137.817 52.4399 137.391 52.0399 136.857C51.6399 136.311 51.4266 135.704 51.3999 135.037H53.7599C53.7999 135.504 54.0199 135.897 54.4199 136.217C54.8332 136.524 55.3466 136.677 55.9599 136.677C56.5999 136.677 57.0932 136.557 57.4399 136.317C57.7999 136.064 57.9799 135.744 57.9799 135.357C57.9799 134.944 57.7799 134.637 57.3799 134.437C56.9932 134.237 56.3732 134.017 55.5199 133.777C54.6932 133.551 54.0199 133.331 53.4999 133.117C52.9799 132.904 52.5266 132.577 52.1399 132.137C51.7666 131.697 51.5799 131.117 51.5799 130.397C51.5799 129.811 51.7532 129.277 52.0999 128.797C52.4466 128.304 52.9399 127.917 53.5799 127.637C54.2332 127.357 54.9799 127.217 55.8199 127.217C57.0732 127.217 58.0799 127.537 58.8399 128.177C59.6132 128.804 60.0266 129.664 60.0799 130.757H57.7999C57.7599 130.264 57.5599 129.871 57.1999 129.577C56.8399 129.284 56.3532 129.137 55.7399 129.137C55.1399 129.137 54.6799 129.251 54.3599 129.477C54.0399 129.704 53.8799 130.004 53.8799 130.377C53.8799 130.671 53.9866 130.917 54.1999 131.117C54.4132 131.317 54.6732 131.477 54.9799 131.597C55.2866 131.704 55.7399 131.844 56.3399 132.017C57.1399 132.231 57.7932 132.451 58.2999 132.677C58.8199 132.891 59.2666 133.211 59.6399 133.637C60.0132 134.064 60.2066 134.631 60.2199 135.337C60.2199 135.964 60.0466 136.524 59.6999 137.017C59.3532 137.511 58.8599 137.897 58.2199 138.177C57.5932 138.457 56.8532 138.597 55.9999 138.597ZM65.3435 129.257V135.357C65.3435 135.771 65.4368 136.071 65.6235 136.257C65.8235 136.431 66.1568 136.517 66.6235 136.517H68.0235V138.417H66.2235C65.1968 138.417 64.4101 138.177 63.8635 137.697C63.3168 137.217 63.0435 136.437 63.0435 135.357V129.257H61.7435V127.397H63.0435V124.657H65.3435V127.397H68.0235V129.257H65.3435ZM74.9049 138.597C73.8649 138.597 72.9249 138.364 72.0849 137.897C71.2449 137.417 70.5849 136.751 70.1049 135.897C69.6249 135.031 69.3849 134.031 69.3849 132.897C69.3849 131.777 69.6316 130.784 70.1249 129.917C70.6182 129.051 71.2916 128.384 72.1449 127.917C72.9982 127.451 73.9516 127.217 75.0049 127.217C76.0582 127.217 77.0116 127.451 77.8649 127.917C78.7182 128.384 79.3916 129.051 79.8849 129.917C80.3782 130.784 80.6249 131.777 80.6249 132.897C80.6249 134.017 80.3716 135.011 79.8649 135.877C79.3582 136.744 78.6649 137.417 77.7849 137.897C76.9182 138.364 75.9582 138.597 74.9049 138.597ZM74.9049 136.617C75.4916 136.617 76.0382 136.477 76.5449 136.197C77.0649 135.917 77.4849 135.497 77.8049 134.937C78.1249 134.377 78.2849 133.697 78.2849 132.897C78.2849 132.097 78.1316 131.424 77.8249 130.877C77.5182 130.317 77.1116 129.897 76.6049 129.617C76.0982 129.337 75.5516 129.197 74.9649 129.197C74.3782 129.197 73.8316 129.337 73.3249 129.617C72.8316 129.897 72.4382 130.317 72.1449 130.877C71.8516 131.424 71.7049 132.097 71.7049 132.897C71.7049 134.084 72.0049 135.004 72.6049 135.657C73.2182 136.297 73.9849 136.617 74.9049 136.617ZM96.2188 127.217C97.0855 127.217 97.8588 127.397 98.5388 127.757C99.2321 128.117 99.7721 128.651 100.159 129.357C100.559 130.064 100.759 130.917 100.759 131.917V138.417H98.4988V132.257C98.4988 131.271 98.2521 130.517 97.7588 129.997C97.2655 129.464 96.5921 129.197 95.7388 129.197C94.8855 129.197 94.2055 129.464 93.6988 129.997C93.2055 130.517 92.9588 131.271 92.9588 132.257V138.417H90.6988V132.257C90.6988 131.271 90.4521 130.517 89.9588 129.997C89.4655 129.464 88.7921 129.197 87.9388 129.197C87.0855 129.197 86.4055 129.464 85.8988 129.997C85.4055 130.517 85.1588 131.271 85.1588 132.257V138.417H82.8788V127.397H85.1588V128.657C85.5321 128.204 86.0055 127.851 86.5788 127.597C87.1521 127.344 87.7655 127.217 88.4188 127.217C89.2988 127.217 90.0855 127.404 90.7788 127.777C91.4721 128.151 92.0055 128.691 92.3788 129.397C92.7121 128.731 93.2321 128.204 93.9388 127.817C94.6455 127.417 95.4055 127.217 96.2188 127.217ZM104.82 125.937C104.407 125.937 104.06 125.797 103.78 125.517C103.5 125.237 103.36 124.891 103.36 124.477C103.36 124.064 103.5 123.717 103.78 123.437C104.06 123.157 104.407 123.017 104.82 123.017C105.22 123.017 105.56 123.157 105.84 123.437C106.12 123.717 106.26 124.064 106.26 124.477C106.26 124.891 106.12 125.237 105.84 125.517C105.56 125.797 105.22 125.937 104.82 125.937ZM105.94 127.397V138.417H103.66V127.397H105.94ZM110.953 136.557H115.953V138.417H108.313V136.557L113.333 129.257H108.313V127.397H115.953V129.257L110.953 136.557ZM117.588 132.857C117.588 131.751 117.814 130.771 118.268 129.917C118.734 129.064 119.361 128.404 120.148 127.937C120.948 127.457 121.828 127.217 122.788 127.217C123.654 127.217 124.408 127.391 125.048 127.737C125.701 128.071 126.221 128.491 126.608 128.997V127.397H128.908V138.417H126.608V136.777C126.221 137.297 125.694 137.731 125.028 138.077C124.361 138.424 123.601 138.597 122.748 138.597C121.801 138.597 120.934 138.357 120.148 137.877C119.361 137.384 118.734 136.704 118.268 135.837C117.814 134.957 117.588 133.964 117.588 132.857ZM126.608 132.897C126.608 132.137 126.448 131.477 126.128 130.917C125.821 130.357 125.414 129.931 124.908 129.637C124.401 129.344 123.854 129.197 123.268 129.197C122.681 129.197 122.134 129.344 121.628 129.637C121.121 129.917 120.708 130.337 120.388 130.897C120.081 131.444 119.928 132.097 119.928 132.857C119.928 133.617 120.081 134.284 120.388 134.857C120.708 135.431 121.121 135.871 121.628 136.177C122.148 136.471 122.694 136.617 123.268 136.617C123.854 136.617 124.401 136.471 124.908 136.177C125.414 135.884 125.821 135.457 126.128 134.897C126.448 134.324 126.608 133.657 126.608 132.897ZM134.562 129.257V135.357C134.562 135.771 134.656 136.071 134.842 136.257C135.042 136.431 135.376 136.517 135.842 136.517H137.242V138.417H135.442C134.416 138.417 133.629 138.177 133.082 137.697C132.536 137.217 132.262 136.437 132.262 135.357V129.257H130.962V127.397H132.262V124.657H134.562V127.397H137.242V129.257H134.562ZM140.504 125.937C140.09 125.937 139.744 125.797 139.464 125.517C139.184 125.237 139.044 124.891 139.044 124.477C139.044 124.064 139.184 123.717 139.464 123.437C139.744 123.157 140.09 123.017 140.504 123.017C140.904 123.017 141.244 123.157 141.524 123.437C141.804 123.717 141.944 124.064 141.944 124.477C141.944 124.891 141.804 125.237 141.524 125.517C141.244 125.797 140.904 125.937 140.504 125.937ZM141.624 127.397V138.417H139.344V127.397H141.624ZM149.397 138.597C148.357 138.597 147.417 138.364 146.577 137.897C145.737 137.417 145.077 136.751 144.597 135.897C144.117 135.031 143.877 134.031 143.877 132.897C143.877 131.777 144.124 130.784 144.617 129.917C145.11 129.051 145.784 128.384 146.637 127.917C147.49 127.451 148.444 127.217 149.497 127.217C150.55 127.217 151.504 127.451 152.357 127.917C153.21 128.384 153.884 129.051 154.377 129.917C154.87 130.784 155.117 131.777 155.117 132.897C155.117 134.017 154.864 135.011 154.357 135.877C153.85 136.744 153.157 137.417 152.277 137.897C151.41 138.364 150.45 138.597 149.397 138.597ZM149.397 136.617C149.984 136.617 150.53 136.477 151.037 136.197C151.557 135.917 151.977 135.497 152.297 134.937C152.617 134.377 152.777 133.697 152.777 132.897C152.777 132.097 152.624 131.424 152.317 130.877C152.01 130.317 151.604 129.897 151.097 129.617C150.59 129.337 150.044 129.197 149.457 129.197C148.87 129.197 148.324 129.337 147.817 129.617C147.324 129.897 146.93 130.317 146.637 130.877C146.344 131.424 146.197 132.097 146.197 132.897C146.197 134.084 146.497 135.004 147.097 135.657C147.71 136.297 148.477 136.617 149.397 136.617ZM162.931 127.217C163.798 127.217 164.571 127.397 165.251 127.757C165.944 128.117 166.484 128.651 166.871 129.357C167.258 130.064 167.451 130.917 167.451 131.917V138.417H165.191V132.257C165.191 131.271 164.944 130.517 164.451 129.997C163.958 129.464 163.284 129.197 162.431 129.197C161.578 129.197 160.898 129.464 160.391 129.997C159.898 130.517 159.651 131.271 159.651 132.257V138.417H157.371V127.397H159.651V128.657C160.024 128.204 160.498 127.851 161.071 127.597C161.658 127.344 162.278 127.217 162.931 127.217Z" fill="#1E1D4C"/>
<rect x="46" width="100" height="100" rx="13" fill="#DF6951"/>
<path d="M74.1588 36.3239C73.5278 36.3239 73.0116 35.8184 73.0001 35.2006V28.1346C73.0001 27.5055 73.5164 27 74.1588 27H81.3751C82.0061 27 82.5224 27.5055 82.5224 28.1346V30.5948H110.286V28.1346C110.286 27.5167 110.803 27.0112 111.434 27H118.65C119.281 27 119.797 27.5055 119.809 28.1346V35.2006C119.809 35.8184 119.292 36.3239 118.65 36.3239H116.137V63.5094H118.65C119.281 63.5094 119.797 64.0149 119.809 64.6328V71.6987C119.809 72.3166 119.292 72.8221 118.65 72.8333H111.434C110.803 72.8333 110.286 72.3278 110.286 71.6987V69.2386H82.5224V71.6987C82.5224 72.3166 82.0061 72.8221 81.3751 72.8333H74.1588C73.5278 72.8333 73.0116 72.3278 73.0001 71.6987V64.6328C73.0001 64.0149 73.5164 63.5094 74.1588 63.5094H76.6713V36.3239H74.1588ZM117.514 34.0772V29.2467H112.581V34.0772H117.514ZM112.581 70.5866H117.514V65.7561H112.581V70.5866ZM82.5224 64.6328V66.9918H110.286V64.6328C110.286 64.0149 110.803 63.5094 111.434 63.5094H113.843V36.3239H111.434C110.803 36.3239 110.286 35.8184 110.286 35.2006V32.8415H82.5224V35.2006C82.5224 35.8184 82.0061 36.3239 81.3751 36.3239H78.9659V63.5094H81.3751C82.0061 63.5094 82.5224 64.0149 82.5224 64.6328ZM75.2946 65.7561V70.5866H80.2279V65.7561H75.2946ZM80.2279 34.0772V29.2467H75.2946V34.0772H80.2279Z" fill="white"/>
</svg>
