<svg width="231" height="304" viewBox="0 0 231 304" fill="none" xmlns="http://www.w3.org/2000/svg">
<path d="M90.747 230.112C90.0004 230.112 89.3284 229.984 88.731 229.728C88.1337 229.461 87.6644 229.088 87.323 228.608C86.9817 228.128 86.811 227.568 86.811 226.928H88.763C88.8057 227.408 88.9924 227.803 89.323 228.112C89.6644 228.421 90.139 228.576 90.747 228.576C91.3764 228.576 91.867 228.427 92.219 228.128C92.571 227.819 92.747 227.424 92.747 226.944C92.747 226.571 92.635 226.267 92.411 226.032C92.1977 225.797 91.9257 225.616 91.595 225.488C91.275 225.36 90.827 225.221 90.251 225.072C89.5257 224.88 88.9337 224.688 88.475 224.496C88.027 224.293 87.643 223.984 87.323 223.568C87.003 223.152 86.843 222.597 86.843 221.904C86.843 221.264 87.003 220.704 87.323 220.224C87.643 219.744 88.091 219.376 88.667 219.12C89.243 218.864 89.9097 218.736 90.667 218.736C91.7444 218.736 92.6244 219.008 93.307 219.552C94.0004 220.085 94.3844 220.821 94.459 221.76H92.443C92.411 221.355 92.219 221.008 91.867 220.72C91.515 220.432 91.051 220.288 90.475 220.288C89.9524 220.288 89.5257 220.421 89.195 220.688C88.8644 220.955 88.699 221.339 88.699 221.84C88.699 222.181 88.8004 222.464 89.003 222.688C89.2164 222.901 89.483 223.072 89.803 223.2C90.123 223.328 90.5604 223.467 91.115 223.616C91.851 223.819 92.4484 224.021 92.907 224.224C93.3764 224.427 93.771 224.741 94.091 225.168C94.4217 225.584 94.587 226.144 94.587 226.848C94.587 227.413 94.4324 227.947 94.123 228.448C93.8244 228.949 93.3817 229.355 92.795 229.664C92.219 229.963 91.5364 230.112 90.747 230.112ZM104.723 221.184V230H102.899V228.96C102.611 229.323 102.233 229.611 101.763 229.824C101.305 230.027 100.814 230.128 100.291 230.128C99.5979 230.128 98.9739 229.984 98.4193 229.696C97.8753 229.408 97.4433 228.981 97.1233 228.416C96.8139 227.851 96.6593 227.168 96.6593 226.368V221.184H98.4673V226.096C98.4673 226.885 98.6646 227.493 99.0593 227.92C99.4539 228.336 99.9926 228.544 100.675 228.544C101.358 228.544 101.897 228.336 102.291 227.92C102.697 227.493 102.899 226.885 102.899 226.096V221.184H104.723ZM108.954 222.496C109.263 222.069 109.685 221.723 110.218 221.456C110.762 221.179 111.365 221.04 112.026 221.04C112.805 221.04 113.509 221.227 114.138 221.6C114.767 221.973 115.263 222.507 115.626 223.2C115.989 223.883 116.17 224.667 116.17 225.552C116.17 226.437 115.989 227.232 115.626 227.936C115.263 228.629 114.762 229.173 114.122 229.568C113.493 229.952 112.794 230.144 112.026 230.144C111.343 230.144 110.735 230.011 110.202 229.744C109.679 229.477 109.263 229.136 108.954 228.72V230H107.13V218.16H108.954V222.496ZM114.314 225.552C114.314 224.944 114.186 224.421 113.93 223.984C113.685 223.536 113.354 223.2 112.938 222.976C112.533 222.741 112.095 222.624 111.626 222.624C111.167 222.624 110.73 222.741 110.314 222.976C109.909 223.211 109.578 223.552 109.322 224C109.077 224.448 108.954 224.976 108.954 225.584C108.954 226.192 109.077 226.725 109.322 227.184C109.578 227.632 109.909 227.973 110.314 228.208C110.73 228.443 111.167 228.56 111.626 228.56C112.095 228.56 112.533 228.443 112.938 228.208C113.354 227.963 113.685 227.611 113.93 227.152C114.186 226.693 114.314 226.16 114.314 225.552ZM120.102 222.672V227.552C120.102 227.883 120.176 228.123 120.326 228.272C120.486 228.411 120.752 228.48 121.126 228.48H122.246V230H120.806C119.984 230 119.355 229.808 118.918 229.424C118.48 229.04 118.262 228.416 118.262 227.552V222.672H117.222V221.184H118.262V218.992H120.102V221.184H122.246V222.672H120.102ZM124.855 220.016C124.524 220.016 124.247 219.904 124.023 219.68C123.799 219.456 123.687 219.179 123.687 218.848C123.687 218.517 123.799 218.24 124.023 218.016C124.247 217.792 124.524 217.68 124.855 217.68C125.175 217.68 125.447 217.792 125.671 218.016C125.895 218.24 126.007 218.517 126.007 218.848C126.007 219.179 125.895 219.456 125.671 219.68C125.447 219.904 125.175 220.016 124.855 220.016ZM125.751 221.184V230H123.927V221.184H125.751ZM130.274 222.672V227.552C130.274 227.883 130.348 228.123 130.498 228.272C130.658 228.411 130.924 228.48 131.298 228.48H132.418V230H130.978C130.156 230 129.527 229.808 129.09 229.424C128.652 229.04 128.434 228.416 128.434 227.552V222.672H127.394V221.184H128.434V218.992H130.274V221.184H132.418V222.672H130.274ZM135.923 218.16V230H134.099V218.16H135.923ZM146.397 225.376C146.397 225.707 146.376 226.005 146.333 226.272H139.597C139.651 226.976 139.912 227.541 140.381 227.968C140.851 228.395 141.427 228.608 142.109 228.608C143.091 228.608 143.784 228.197 144.189 227.376H146.157C145.891 228.187 145.405 228.853 144.701 229.376C144.008 229.888 143.144 230.144 142.109 230.144C141.267 230.144 140.509 229.957 139.837 229.584C139.176 229.2 138.653 228.667 138.269 227.984C137.896 227.291 137.709 226.491 137.709 225.584C137.709 224.677 137.891 223.883 138.253 223.2C138.627 222.507 139.144 221.973 139.805 221.6C140.477 221.227 141.245 221.04 142.109 221.04C142.941 221.04 143.683 221.221 144.333 221.584C144.984 221.947 145.491 222.459 145.853 223.12C146.216 223.771 146.397 224.523 146.397 225.376ZM144.493 224.8C144.483 224.128 144.243 223.589 143.773 223.184C143.304 222.779 142.723 222.576 142.029 222.576C141.4 222.576 140.861 222.779 140.413 223.184C139.965 223.579 139.699 224.117 139.613 224.8H144.493Z" fill="#5E6282"/>
<path d="M70.9146 175.1C72.3946 175.1 73.688 175.387 74.7946 175.96C75.9146 176.52 76.7746 177.333 77.3746 178.4C77.988 179.453 78.2946 180.687 78.2946 182.1C78.2946 183.513 77.988 184.74 77.3746 185.78C76.7746 186.82 75.9146 187.62 74.7946 188.18C73.688 188.727 72.3946 189 70.9146 189H66.3746V175.1H70.9146ZM70.9146 187.14C72.5413 187.14 73.788 186.7 74.6546 185.82C75.5213 184.94 75.9546 183.7 75.9546 182.1C75.9546 180.487 75.5213 179.227 74.6546 178.32C73.788 177.413 72.5413 176.96 70.9146 176.96H68.6546V187.14H70.9146ZM85.3343 189.18C84.2943 189.18 83.3543 188.947 82.5143 188.48C81.6743 188 81.0143 187.333 80.5343 186.48C80.0543 185.613 79.8143 184.613 79.8143 183.48C79.8143 182.36 80.061 181.367 80.5543 180.5C81.0477 179.633 81.721 178.967 82.5743 178.5C83.4277 178.033 84.381 177.8 85.4343 177.8C86.4877 177.8 87.441 178.033 88.2943 178.5C89.1477 178.967 89.821 179.633 90.3143 180.5C90.8077 181.367 91.0543 182.36 91.0543 183.48C91.0543 184.6 90.801 185.593 90.2943 186.46C89.7877 187.327 89.0943 188 88.2143 188.48C87.3477 188.947 86.3877 189.18 85.3343 189.18ZM85.3343 187.2C85.921 187.2 86.4677 187.06 86.9743 186.78C87.4943 186.5 87.9143 186.08 88.2343 185.52C88.5543 184.96 88.7143 184.28 88.7143 183.48C88.7143 182.68 88.561 182.007 88.2543 181.46C87.9477 180.9 87.541 180.48 87.0343 180.2C86.5277 179.92 85.981 179.78 85.3943 179.78C84.8077 179.78 84.261 179.92 83.7543 180.2C83.261 180.48 82.8677 180.9 82.5743 181.46C82.281 182.007 82.1343 182.68 82.1343 183.48C82.1343 184.667 82.4343 185.587 83.0343 186.24C83.6477 186.88 84.4143 187.2 85.3343 187.2ZM98.8682 177.8C99.7349 177.8 100.508 177.98 101.188 178.34C101.882 178.7 102.422 179.233 102.808 179.94C103.195 180.647 103.388 181.5 103.388 182.5V189H101.128V182.84C101.128 181.853 100.882 181.1 100.388 180.58C99.8949 180.047 99.2216 179.78 98.3682 179.78C97.5149 179.78 96.8349 180.047 96.3282 180.58C95.8349 181.1 95.5882 181.853 95.5882 182.84V189H93.3082V177.98H95.5882V179.24C95.9616 178.787 96.4349 178.433 97.0082 178.18C97.5949 177.927 98.2149 177.8 98.8682 177.8ZM105.537 183.44C105.537 182.333 105.763 181.353 106.217 180.5C106.683 179.647 107.31 178.987 108.097 178.52C108.897 178.04 109.777 177.8 110.737 177.8C111.603 177.8 112.357 177.973 112.997 178.32C113.65 178.653 114.17 179.073 114.557 179.58V177.98H116.857V189H114.557V187.36C114.17 187.88 113.643 188.313 112.977 188.66C112.31 189.007 111.55 189.18 110.697 189.18C109.75 189.18 108.883 188.94 108.097 188.46C107.31 187.967 106.683 187.287 106.217 186.42C105.763 185.54 105.537 184.547 105.537 183.44ZM114.557 183.48C114.557 182.72 114.397 182.06 114.077 181.5C113.77 180.94 113.363 180.513 112.857 180.22C112.35 179.927 111.803 179.78 111.217 179.78C110.63 179.78 110.083 179.927 109.577 180.22C109.07 180.5 108.657 180.92 108.337 181.48C108.03 182.027 107.877 182.68 107.877 183.44C107.877 184.2 108.03 184.867 108.337 185.44C108.657 186.013 109.07 186.453 109.577 186.76C110.097 187.053 110.643 187.2 111.217 187.2C111.803 187.2 112.35 187.053 112.857 186.76C113.363 186.467 113.77 186.04 114.077 185.48C114.397 184.907 114.557 184.24 114.557 183.48ZM122.511 179.84V185.94C122.511 186.353 122.605 186.653 122.791 186.84C122.991 187.013 123.325 187.1 123.791 187.1H125.191V189H123.391C122.365 189 121.578 188.76 121.031 188.28C120.485 187.8 120.211 187.02 120.211 185.94V179.84H118.911V177.98H120.211V175.24H122.511V177.98H125.191V179.84H122.511ZM128.453 176.52C128.039 176.52 127.693 176.38 127.413 176.1C127.133 175.82 126.993 175.473 126.993 175.06C126.993 174.647 127.133 174.3 127.413 174.02C127.693 173.74 128.039 173.6 128.453 173.6C128.853 173.6 129.193 173.74 129.473 174.02C129.753 174.3 129.893 174.647 129.893 175.06C129.893 175.473 129.753 175.82 129.473 176.1C129.193 176.38 128.853 176.52 128.453 176.52ZM129.573 177.98V189H127.293V177.98H129.573ZM137.346 189.18C136.306 189.18 135.366 188.947 134.526 188.48C133.686 188 133.026 187.333 132.546 186.48C132.066 185.613 131.826 184.613 131.826 183.48C131.826 182.36 132.073 181.367 132.566 180.5C133.059 179.633 133.733 178.967 134.586 178.5C135.439 178.033 136.393 177.8 137.446 177.8C138.499 177.8 139.453 178.033 140.306 178.5C141.159 178.967 141.833 179.633 142.326 180.5C142.819 181.367 143.066 182.36 143.066 183.48C143.066 184.6 142.813 185.593 142.306 186.46C141.799 187.327 141.106 188 140.226 188.48C139.359 188.947 138.399 189.18 137.346 189.18ZM137.346 187.2C137.933 187.2 138.479 187.06 138.986 186.78C139.506 186.5 139.926 186.08 140.246 185.52C140.566 184.96 140.726 184.28 140.726 183.48C140.726 182.68 140.573 182.007 140.266 181.46C139.959 180.9 139.553 180.48 139.046 180.2C138.539 179.92 137.993 179.78 137.406 179.78C136.819 179.78 136.273 179.92 135.766 180.2C135.273 180.48 134.879 180.9 134.586 181.46C134.293 182.007 134.146 182.68 134.146 183.48C134.146 184.667 134.446 185.587 135.046 186.24C135.659 186.88 136.426 187.2 137.346 187.2ZM150.88 177.8C151.747 177.8 152.52 177.98 153.2 178.34C153.893 178.7 154.433 179.233 154.82 179.94C155.207 180.647 155.4 181.5 155.4 182.5V189H153.14V182.84C153.14 181.853 152.893 181.1 152.4 180.58C151.907 180.047 151.233 179.78 150.38 179.78C149.527 179.78 148.847 180.047 148.34 180.58C147.847 181.1 147.6 181.853 147.6 182.84V189H145.32V177.98H147.6V179.24C147.973 178.787 148.447 178.433 149.02 178.18C149.607 177.927 150.227 177.8 150.88 177.8ZM162.308 189.18C161.442 189.18 160.662 189.027 159.968 188.72C159.288 188.4 158.748 187.973 158.348 187.44C157.948 186.893 157.735 186.287 157.708 185.62H160.068C160.108 186.087 160.328 186.48 160.728 186.8C161.142 187.107 161.655 187.26 162.268 187.26C162.908 187.26 163.402 187.14 163.748 186.9C164.108 186.647 164.288 186.327 164.288 185.94C164.288 185.527 164.088 185.22 163.688 185.02C163.302 184.82 162.682 184.6 161.828 184.36C161.002 184.133 160.328 183.913 159.808 183.7C159.288 183.487 158.835 183.16 158.448 182.72C158.075 182.28 157.888 181.7 157.888 180.98C157.888 180.393 158.062 179.86 158.408 179.38C158.755 178.887 159.248 178.5 159.888 178.22C160.542 177.94 161.288 177.8 162.128 177.8C163.382 177.8 164.388 178.12 165.148 178.76C165.922 179.387 166.335 180.247 166.388 181.34H164.108C164.068 180.847 163.868 180.453 163.508 180.16C163.148 179.867 162.662 179.72 162.048 179.72C161.448 179.72 160.988 179.833 160.668 180.06C160.348 180.287 160.188 180.587 160.188 180.96C160.188 181.253 160.295 181.5 160.508 181.7C160.722 181.9 160.982 182.06 161.288 182.18C161.595 182.287 162.048 182.427 162.648 182.6C163.448 182.813 164.102 183.033 164.608 183.26C165.128 183.473 165.575 183.793 165.948 184.22C166.322 184.647 166.515 185.213 166.528 185.92C166.528 186.547 166.355 187.107 166.008 187.6C165.662 188.093 165.168 188.48 164.528 188.76C163.902 189.04 163.162 189.18 162.308 189.18Z" fill="#1E1D4C"/>
<rect x="66" y="45" width="100" height="100" rx="13" fill="#F15A2B"/>
<path d="M135.826 111.518C134.869 111.537 133.928 111.269 133.13 110.749C132.537 110.369 131.843 110.167 131.134 110.167C130.425 110.167 129.731 110.369 129.138 110.749C128.332 111.251 127.397 111.518 126.442 111.518C125.487 111.518 124.552 111.251 123.746 110.749C123.153 110.369 122.459 110.166 121.75 110.166C121.04 110.166 120.347 110.369 119.753 110.749C118.947 111.251 118.012 111.518 117.057 111.518C116.102 111.518 115.167 111.251 114.362 110.749C113.768 110.369 113.075 110.167 112.366 110.167C111.658 110.167 110.964 110.369 110.371 110.749C109.641 111.224 108.788 111.488 107.912 111.511L107.863 110.16C108.511 110.145 109.14 109.944 109.672 109.583C110.477 109.081 111.412 108.814 112.367 108.814C113.322 108.814 114.257 109.081 115.062 109.583C115.656 109.963 116.349 110.165 117.058 110.165C117.767 110.165 118.461 109.963 119.055 109.583C119.86 109.08 120.796 108.813 121.751 108.813C122.706 108.813 123.642 109.08 124.447 109.583C125.041 109.963 125.735 110.165 126.444 110.165C127.153 110.165 127.847 109.963 128.44 109.583C129.246 109.081 130.181 108.814 131.136 108.814C132.091 108.814 133.026 109.081 133.831 109.583C134.426 109.964 135.122 110.166 135.833 110.166C136.543 110.166 137.239 109.964 137.834 109.583C138.63 109.064 139.569 108.797 140.526 108.815V110.167C139.814 110.147 139.114 110.351 138.529 110.748C137.729 111.269 136.786 111.537 135.826 111.518Z" fill="white"/>
<path d="M98.2945 111.518C97.3369 111.537 96.3963 111.269 95.5992 110.749C95.0138 110.351 94.3142 110.147 93.6022 110.166V108.815C94.56 108.795 95.5009 109.064 96.2982 109.584C96.8833 109.981 97.5827 110.185 98.2945 110.166C99.0067 110.185 99.7064 109.981 100.292 109.583C101.087 109.063 102.027 108.795 102.983 108.815C103.916 108.794 104.833 109.05 105.615 109.549L104.919 110.716C104.348 110.339 103.671 110.147 102.983 110.166C102.274 110.147 101.577 110.351 100.994 110.747C100.196 111.269 99.2537 111.538 98.2945 111.518Z" fill="white"/>
<path d="M135.829 106.787C134.87 106.806 133.929 106.538 133.13 106.018C132.536 105.638 131.842 105.436 131.132 105.436C130.423 105.436 129.728 105.638 129.134 106.018C128.329 106.52 127.394 106.787 126.439 106.787C125.484 106.787 124.549 106.52 123.744 106.018C123.15 105.638 122.457 105.436 121.748 105.436C121.039 105.436 120.346 105.638 119.752 106.018C118.947 106.521 118.012 106.787 117.057 106.787C116.102 106.787 115.167 106.521 114.362 106.018C113.768 105.638 113.075 105.436 112.366 105.436C111.657 105.436 110.964 105.638 110.37 106.018C109.573 106.538 108.633 106.807 107.675 106.787C106.717 106.807 105.777 106.538 104.98 106.018C104.395 105.621 103.696 105.417 102.984 105.436C102.273 105.417 101.574 105.621 100.989 106.018C100.193 106.538 99.2542 106.806 98.298 106.787C97.3402 106.807 96.3993 106.538 95.6019 106.018C95.0159 105.62 94.3152 105.416 93.6022 105.436V104.085C94.5598 104.065 95.5004 104.333 96.2975 104.853C96.8829 105.251 97.5825 105.455 98.2945 105.436C99.0059 105.455 99.7048 105.251 100.289 104.853C101.085 104.334 102.024 104.066 102.981 104.085C103.939 104.065 104.88 104.333 105.678 104.853C106.263 105.251 106.963 105.455 107.674 105.436C108.386 105.455 109.086 105.251 109.671 104.853C110.476 104.351 111.411 104.084 112.366 104.084C113.321 104.084 114.256 104.351 115.061 104.853C115.655 105.233 116.348 105.436 117.057 105.436C117.766 105.436 118.46 105.233 119.053 104.853C119.859 104.351 120.794 104.084 121.749 104.084C122.704 104.084 123.639 104.351 124.444 104.853C125.037 105.233 125.731 105.436 126.44 105.436C127.149 105.436 127.843 105.233 128.436 104.853C129.242 104.351 130.178 104.085 131.133 104.085C132.089 104.085 133.025 104.351 133.831 104.853C134.425 105.233 135.12 105.436 135.83 105.436C136.539 105.436 137.234 105.233 137.828 104.853C138.626 104.334 139.568 104.066 140.526 104.085V105.436C139.812 105.416 139.111 105.62 138.525 106.018C137.727 106.538 136.786 106.806 135.829 106.787Z" fill="white"/>
<path d="M135.826 102.058C134.869 102.078 133.928 101.809 133.13 101.289C132.545 100.892 131.845 100.688 131.133 100.707C130.611 100.689 130.092 100.798 129.623 101.025L129.014 99.8083C129.673 99.4922 130.4 99.3362 131.133 99.3536C132.092 99.3345 133.034 99.6035 133.832 100.125C134.427 100.505 135.123 100.708 135.833 100.708C136.544 100.708 137.24 100.505 137.835 100.125C138.631 99.6059 139.57 99.3377 140.526 99.3556V100.707C139.814 100.688 139.114 100.892 138.529 101.289C137.729 101.809 136.786 102.078 135.826 102.058Z" fill="white"/>
<path d="M126.435 102.058C125.479 102.078 124.539 101.809 123.744 101.29C123.15 100.91 122.456 100.707 121.747 100.707C121.038 100.707 120.344 100.91 119.75 101.29C118.945 101.792 118.01 102.059 117.055 102.059C116.1 102.059 115.164 101.792 114.359 101.29C113.765 100.91 113.072 100.707 112.363 100.707C111.654 100.707 110.96 100.91 110.366 101.29C109.569 101.809 108.629 102.077 107.672 102.058C106.715 102.077 105.774 101.809 104.977 101.289C104.392 100.892 103.692 100.688 102.98 100.707C102.271 100.688 101.574 100.891 100.991 101.288C100.194 101.809 99.2527 102.077 98.2945 102.058C97.3369 102.077 96.3963 101.809 95.5992 101.289C95.0138 100.892 94.3142 100.688 93.6022 100.707V99.3553C94.56 99.3358 95.5009 99.6041 96.2982 100.124C96.8833 100.522 97.5827 100.726 98.2945 100.707C99.0067 100.726 99.7064 100.521 100.292 100.123C101.087 99.6037 102.027 99.3356 102.983 99.3553C103.94 99.3359 104.881 99.6043 105.678 100.124C106.263 100.522 106.963 100.726 107.674 100.707C108.386 100.726 109.086 100.522 109.671 100.124C110.477 99.622 111.412 99.3552 112.367 99.3552C113.322 99.3552 114.257 99.622 115.063 100.124C115.656 100.504 116.35 100.706 117.059 100.706C117.768 100.706 118.462 100.504 119.055 100.124C119.861 99.6216 120.797 99.3547 121.752 99.3547C122.707 99.3547 123.642 99.6216 124.448 100.124C125.056 100.525 125.777 100.728 126.509 100.706C126.563 100.707 126.616 100.704 126.669 100.698L126.852 102.037C126.714 102.053 126.574 102.06 126.435 102.058Z" fill="white"/>
<path d="M135.829 97.3278C134.87 97.3469 133.929 97.0786 133.13 96.5588C132.536 96.1787 131.842 95.9763 131.132 95.9763C130.423 95.9763 129.728 96.1787 129.134 96.5588C128.329 97.0609 127.394 97.3276 126.439 97.3276C125.484 97.3276 124.549 97.0609 123.744 96.5588C123.15 96.179 122.457 95.9766 121.748 95.9766C121.039 95.9766 120.346 96.179 119.752 96.5588C118.947 97.061 118.012 97.3278 117.057 97.3278C116.102 97.3278 115.167 97.061 114.362 96.5588C113.768 96.179 113.075 95.9766 112.366 95.9766C111.657 95.9766 110.964 96.179 110.37 96.5588C109.573 97.0789 108.633 97.3472 107.675 97.3278C106.717 97.3472 105.777 97.0789 104.98 96.5588C104.395 96.1615 103.696 95.9574 102.984 95.9764C102.273 95.9575 101.574 96.1615 100.989 96.5588C100.193 97.0783 99.2542 97.3466 98.298 97.3278C97.3402 97.3472 96.3993 97.0789 95.6019 96.5588C95.0159 96.1607 94.3152 95.9566 93.6022 95.9764V94.6251C94.5598 94.6057 95.5004 94.874 96.2975 95.394C96.8829 95.7913 97.5825 95.9954 98.2945 95.9764C99.0059 95.9953 99.7048 95.7913 100.289 95.394C101.085 94.8745 102.024 94.6062 102.981 94.6251C103.939 94.6051 104.88 94.8735 105.678 95.394C106.263 95.7915 106.963 95.9955 107.674 95.9764C108.386 95.9955 109.086 95.7915 109.671 95.394C110.476 94.8917 111.411 94.6249 112.366 94.6249C113.321 94.6249 114.256 94.8917 115.061 95.394C115.655 95.7739 116.348 95.9763 117.057 95.9763C117.766 95.9763 118.46 95.7739 119.053 95.394C119.859 94.8917 120.794 94.6249 121.749 94.6249C122.704 94.6249 123.639 94.8917 124.444 95.394C125.037 95.7739 125.731 95.9763 126.44 95.9763C127.149 95.9763 127.843 95.7739 128.436 95.394C129.242 94.8919 130.178 94.6252 131.133 94.6252C132.089 94.6252 133.025 94.8919 133.831 95.394C134.425 95.7738 135.12 95.9761 135.83 95.9761C136.539 95.9761 137.234 95.7738 137.828 95.394C138.626 94.8743 139.568 94.606 140.526 94.6251V95.9764C139.812 95.9567 139.111 96.1607 138.525 96.5588C137.727 97.0782 136.786 97.3465 135.829 97.3278Z" fill="white"/>
<path d="M125.995 96.7548L124.693 96.3075C125.029 95.3641 125.166 94.364 125.096 93.3673C125.026 92.3707 124.752 91.3982 124.288 90.5082L119.548 81.4197C119.501 81.3299 119.476 81.2311 119.473 81.1303C119.47 81.0296 119.491 80.9295 119.532 80.8375C119.574 80.7454 119.637 80.6637 119.715 80.5983C119.793 80.5329 119.886 80.4855 119.985 80.4596L129.431 77.9933C129.739 77.9145 130.003 77.7199 130.165 77.4517C130.327 77.1836 130.374 76.8636 130.296 76.5615C130.218 76.2594 130.022 75.9995 129.75 75.8385C129.477 75.6774 129.151 75.6282 128.842 75.7015L117.409 78.3771C117.165 78.4337 116.937 78.5446 116.743 78.7012C116.55 78.8578 116.395 79.056 116.293 79.2803C116.19 79.5047 116.141 79.7492 116.15 79.9949C116.16 80.2407 116.226 80.481 116.346 80.6974L119.741 86.8731C119.827 87.03 119.846 87.2139 119.794 87.3848C119.743 87.5556 119.624 87.6995 119.465 87.7852L115.083 90.1501L114.417 88.9663L118.2 86.9244L115.132 81.3379C114.912 80.9391 114.79 80.4962 114.773 80.0435C114.756 79.5908 114.846 79.1404 115.035 78.7271C115.225 78.3138 115.509 77.9486 115.865 77.66C116.222 77.3713 116.641 77.1668 117.092 77.0623L128.519 74.3873C129.184 74.2227 129.889 74.3236 130.478 74.6678C131.067 75.012 131.493 75.5713 131.661 76.2227C131.829 76.8741 131.726 77.5642 131.375 78.1412C131.023 78.7182 130.452 79.1348 129.787 79.2994L121.165 81.5494L125.518 89.8927C126.066 90.9458 126.391 92.0967 126.473 93.276C126.555 94.4552 126.393 95.6386 125.995 96.7548Z" fill="white"/>
<path d="M112.005 90.2788L103.619 94.8032L104.285 95.9862L112.671 91.4617L112.005 90.2788Z" fill="white"/>
<path d="M132.245 92.2604C131.221 92.2604 130.221 91.9632 129.37 91.4063C128.519 90.8495 127.855 90.0581 127.464 89.1321C127.072 88.2061 126.969 87.1872 127.169 86.2042C127.369 85.2212 127.862 84.3182 128.586 83.6095C129.309 82.9008 130.231 82.4182 131.235 82.2226C132.239 82.0271 133.28 82.1274 134.226 82.511C135.171 82.8945 135.98 83.5441 136.548 84.3774C137.117 85.2108 137.42 86.1905 137.42 87.1928C137.419 88.5364 136.873 89.8245 135.903 90.7745C134.933 91.7246 133.617 92.2589 132.245 92.2604ZM132.245 83.4766C131.494 83.4766 130.761 83.6945 130.137 84.1029C129.512 84.5112 129.026 85.0916 128.739 85.7707C128.451 86.4497 128.376 87.1969 128.523 87.9178C128.669 88.6387 129.031 89.3008 129.561 89.8206C130.092 90.3403 130.768 90.6942 131.505 90.8376C132.241 90.981 133.004 90.9074 133.697 90.6261C134.391 90.3449 134.984 89.8686 135.401 89.2574C135.818 88.6463 136.04 87.9278 136.04 87.1928C136.039 86.2076 135.639 85.2631 134.927 84.5664C134.216 83.8698 133.251 83.4778 132.245 83.4766Z" fill="white"/>
</svg>
