<svg width="192" height="258" viewBox="0 0 192 258" fill="none" xmlns="http://www.w3.org/2000/svg">
<path d="M69.9742 184.289C69.2275 184.289 68.5555 184.161 67.9582 183.905C67.3609 183.638 66.8915 183.265 66.5502 182.785C66.2089 182.305 66.0382 181.745 66.0382 181.105H67.9902C68.0329 181.585 68.2195 181.98 68.5502 182.289C68.8915 182.598 69.3662 182.753 69.9742 182.753C70.6035 182.753 71.0942 182.604 71.4462 182.305C71.7982 181.996 71.9742 181.601 71.9742 181.121C71.9742 180.748 71.8622 180.444 71.6382 180.209C71.4249 179.974 71.1529 179.793 70.8222 179.665C70.5022 179.537 70.0542 179.398 69.4782 179.249C68.7529 179.057 68.1609 178.865 67.7022 178.673C67.2542 178.47 66.8702 178.161 66.5502 177.745C66.2302 177.329 66.0702 176.774 66.0702 176.081C66.0702 175.441 66.2302 174.881 66.5502 174.401C66.8702 173.921 67.3182 173.553 67.8942 173.297C68.4702 173.041 69.1369 172.913 69.8942 172.913C70.9715 172.913 71.8515 173.185 72.5342 173.729C73.2275 174.262 73.6115 174.998 73.6862 175.937H71.6702C71.6382 175.532 71.4462 175.185 71.0942 174.897C70.7422 174.609 70.2782 174.465 69.7022 174.465C69.1795 174.465 68.7529 174.598 68.4222 174.865C68.0915 175.132 67.9262 175.516 67.9262 176.017C67.9262 176.358 68.0275 176.641 68.2302 176.865C68.4435 177.078 68.7102 177.249 69.0302 177.377C69.3502 177.505 69.7875 177.644 70.3422 177.793C71.0782 177.996 71.6755 178.198 72.1342 178.401C72.6035 178.604 72.9982 178.918 73.3182 179.345C73.6489 179.761 73.8142 180.321 73.8142 181.025C73.8142 181.59 73.6595 182.124 73.3502 182.625C73.0515 183.126 72.6089 183.532 72.0222 183.841C71.4462 184.14 70.7635 184.289 69.9742 184.289ZM83.9504 175.361V184.177H82.1264V183.137C81.8384 183.5 81.4598 183.788 80.9904 184.001C80.5318 184.204 80.0411 184.305 79.5184 184.305C78.8251 184.305 78.2011 184.161 77.6464 183.873C77.1024 183.585 76.6704 183.158 76.3504 182.593C76.0411 182.028 75.8864 181.345 75.8864 180.545V175.361H77.6944V180.273C77.6944 181.062 77.8918 181.67 78.2864 182.097C78.6811 182.513 79.2198 182.721 79.9024 182.721C80.5851 182.721 81.1238 182.513 81.5184 182.097C81.9238 181.67 82.1264 181.062 82.1264 180.273V175.361H83.9504ZM88.1811 176.673C88.4904 176.246 88.9117 175.9 89.4451 175.633C89.9891 175.356 90.5917 175.217 91.2531 175.217C92.0317 175.217 92.7357 175.404 93.3651 175.777C93.9944 176.15 94.4904 176.684 94.8531 177.377C95.2157 178.06 95.3971 178.844 95.3971 179.729C95.3971 180.614 95.2157 181.409 94.8531 182.113C94.4904 182.806 93.9891 183.35 93.3491 183.745C92.7197 184.129 92.0211 184.321 91.2531 184.321C90.5704 184.321 89.9624 184.188 89.4291 183.921C88.9064 183.654 88.4904 183.313 88.1811 182.897V184.177H86.3571V172.337H88.1811V176.673ZM93.5411 179.729C93.5411 179.121 93.4131 178.598 93.1571 178.161C92.9117 177.713 92.5811 177.377 92.1651 177.153C91.7597 176.918 91.3224 176.801 90.8531 176.801C90.3944 176.801 89.9571 176.918 89.5411 177.153C89.1357 177.388 88.8051 177.729 88.5491 178.177C88.3037 178.625 88.1811 179.153 88.1811 179.761C88.1811 180.369 88.3037 180.902 88.5491 181.361C88.8051 181.809 89.1357 182.15 89.5411 182.385C89.9571 182.62 90.3944 182.737 90.8531 182.737C91.3224 182.737 91.7597 182.62 92.1651 182.385C92.5811 182.14 92.9117 181.788 93.1571 181.329C93.4131 180.87 93.5411 180.337 93.5411 179.729ZM99.3288 176.849V181.729C99.3288 182.06 99.4035 182.3 99.5528 182.449C99.7128 182.588 99.9795 182.657 100.353 182.657H101.473V184.177H100.033C99.2115 184.177 98.5821 183.985 98.1448 183.601C97.7075 183.217 97.4888 182.593 97.4888 181.729V176.849H96.4488V175.361H97.4888V173.169H99.3288V175.361H101.473V176.849H99.3288ZM104.082 174.193C103.751 174.193 103.474 174.081 103.25 173.857C103.026 173.633 102.914 173.356 102.914 173.025C102.914 172.694 103.026 172.417 103.25 172.193C103.474 171.969 103.751 171.857 104.082 171.857C104.402 171.857 104.674 171.969 104.898 172.193C105.122 172.417 105.234 172.694 105.234 173.025C105.234 173.356 105.122 173.633 104.898 173.857C104.674 174.081 104.402 174.193 104.082 174.193ZM104.978 175.361V184.177H103.154V175.361H104.978ZM109.501 176.849V181.729C109.501 182.06 109.575 182.3 109.725 182.449C109.885 182.588 110.151 182.657 110.525 182.657H111.645V184.177H110.205C109.383 184.177 108.754 183.985 108.317 183.601C107.879 183.217 107.661 182.593 107.661 181.729V176.849H106.621V175.361H107.661V173.169H109.501V175.361H111.645V176.849H109.501ZM115.15 172.337V184.177H113.326V172.337H115.15ZM125.625 179.553C125.625 179.884 125.603 180.182 125.561 180.449H118.825C118.878 181.153 119.139 181.718 119.609 182.145C120.078 182.572 120.654 182.785 121.337 182.785C122.318 182.785 123.011 182.374 123.417 181.553H125.385C125.118 182.364 124.633 183.03 123.929 183.553C123.235 184.065 122.371 184.321 121.337 184.321C120.494 184.321 119.737 184.134 119.065 183.761C118.403 183.377 117.881 182.844 117.497 182.161C117.123 181.468 116.937 180.668 116.937 179.761C116.937 178.854 117.118 178.06 117.481 177.377C117.854 176.684 118.371 176.15 119.033 175.777C119.705 175.404 120.473 175.217 121.337 175.217C122.169 175.217 122.91 175.398 123.561 175.761C124.211 176.124 124.718 176.636 125.081 177.297C125.443 177.948 125.625 178.7 125.625 179.553ZM123.721 178.977C123.71 178.305 123.47 177.766 123.001 177.361C122.531 176.956 121.95 176.753 121.257 176.753C120.627 176.753 120.089 176.956 119.641 177.361C119.193 177.756 118.926 178.294 118.841 178.977H123.721Z" fill="#5E6282"/>
<path d="M65.1287 125.357V129.437H69.9287V131.297H65.1287V135.557H70.5287V137.417H62.8487V123.497H70.5287V125.357H65.1287ZM77.597 135.377L80.717 126.397H83.137L78.937 137.417H76.217L72.037 126.397H74.477L77.597 135.377ZM94.9604 131.637C94.9604 132.05 94.9337 132.424 94.8804 132.757H86.4604C86.5271 133.637 86.8537 134.344 87.4404 134.877C88.0271 135.41 88.7471 135.677 89.6004 135.677C90.8271 135.677 91.6937 135.164 92.2004 134.137H94.6604C94.3271 135.15 93.7204 135.984 92.8404 136.637C91.9737 137.277 90.8937 137.597 89.6004 137.597C88.5471 137.597 87.6004 137.364 86.7604 136.897C85.9337 136.417 85.2804 135.75 84.8004 134.897C84.3337 134.03 84.1004 133.03 84.1004 131.897C84.1004 130.764 84.3271 129.77 84.7804 128.917C85.2471 128.05 85.8937 127.384 86.7204 126.917C87.5604 126.45 88.5204 126.217 89.6004 126.217C90.6404 126.217 91.5671 126.444 92.3804 126.897C93.1937 127.35 93.8271 127.99 94.2804 128.817C94.7337 129.63 94.9604 130.57 94.9604 131.637ZM92.5804 130.917C92.5671 130.077 92.2671 129.404 91.6804 128.897C91.0937 128.39 90.3671 128.137 89.5004 128.137C88.7137 128.137 88.0404 128.39 87.4804 128.897C86.9204 129.39 86.5871 130.064 86.4804 130.917H92.5804ZM102.764 126.217C103.631 126.217 104.404 126.397 105.084 126.757C105.777 127.117 106.317 127.65 106.704 128.357C107.091 129.064 107.284 129.917 107.284 130.917V137.417H105.024V131.257C105.024 130.27 104.777 129.517 104.284 128.997C103.791 128.464 103.117 128.197 102.264 128.197C101.411 128.197 100.731 128.464 100.224 128.997C99.7308 129.517 99.4842 130.27 99.4842 131.257V137.417H97.2042V126.397H99.4842V127.657C99.8575 127.204 100.331 126.85 100.904 126.597C101.491 126.344 102.111 126.217 102.764 126.217ZM112.852 128.257V134.357C112.852 134.77 112.946 135.07 113.132 135.257C113.332 135.43 113.666 135.517 114.132 135.517H115.532V137.417H113.732C112.706 137.417 111.919 137.177 111.372 136.697C110.826 136.217 110.552 135.437 110.552 134.357V128.257H109.252V126.397H110.552V123.657H112.852V126.397H115.532V128.257H112.852ZM121.634 137.597C120.767 137.597 119.987 137.444 119.294 137.137C118.614 136.817 118.074 136.39 117.674 135.857C117.274 135.31 117.061 134.704 117.034 134.037H119.394C119.434 134.504 119.654 134.897 120.054 135.217C120.467 135.524 120.981 135.677 121.594 135.677C122.234 135.677 122.727 135.557 123.074 135.317C123.434 135.064 123.614 134.744 123.614 134.357C123.614 133.944 123.414 133.637 123.014 133.437C122.627 133.237 122.007 133.017 121.154 132.777C120.327 132.55 119.654 132.33 119.134 132.117C118.614 131.904 118.161 131.577 117.774 131.137C117.401 130.697 117.214 130.117 117.214 129.397C117.214 128.81 117.387 128.277 117.734 127.797C118.081 127.304 118.574 126.917 119.214 126.637C119.867 126.357 120.614 126.217 121.454 126.217C122.707 126.217 123.714 126.537 124.474 127.177C125.247 127.804 125.661 128.664 125.714 129.757H123.434C123.394 129.264 123.194 128.87 122.834 128.577C122.474 128.284 121.987 128.137 121.374 128.137C120.774 128.137 120.314 128.25 119.994 128.477C119.674 128.704 119.514 129.004 119.514 129.377C119.514 129.67 119.621 129.917 119.834 130.117C120.047 130.317 120.307 130.477 120.614 130.597C120.921 130.704 121.374 130.844 121.974 131.017C122.774 131.23 123.427 131.45 123.934 131.677C124.454 131.89 124.901 132.21 125.274 132.637C125.647 133.064 125.841 133.63 125.854 134.337C125.854 134.964 125.681 135.524 125.334 136.017C124.987 136.51 124.494 136.897 123.854 137.177C123.227 137.457 122.487 137.597 121.634 137.597Z" fill="#1E1D4C"/>
<rect x="50" width="100" height="100" rx="13" fill="#F0BB1F"/>
<path d="M78.1586 36.3239C77.5276 36.3239 77.0113 35.8184 76.9998 35.2006V28.1346C76.9998 27.5055 77.5161 27 78.1586 27H85.3749C86.0059 27 86.5222 27.5055 86.5222 28.1346V30.5948H114.286V28.1346C114.286 27.5167 114.802 27.0112 115.433 27H122.65C123.281 27 123.797 27.5055 123.808 28.1346V35.2006C123.808 35.8184 123.292 36.3239 122.65 36.3239H120.137V63.5094H122.65C123.281 63.5094 123.797 64.0149 123.808 64.6328V71.6987C123.808 72.3166 123.292 72.8221 122.65 72.8333H115.433C114.802 72.8333 114.286 72.3278 114.286 71.6987V69.2386H86.5222V71.6987C86.5222 72.3166 86.0059 72.8221 85.3749 72.8333H78.1586C77.5276 72.8333 77.0113 72.3278 76.9998 71.6987V64.6328C76.9998 64.0149 77.5161 63.5094 78.1586 63.5094H80.6711V36.3239H78.1586ZM121.514 34.0772V29.2467H116.581V34.0772H121.514ZM116.581 70.5866H121.514V65.7561H116.581V70.5866ZM86.5222 64.6328V66.9918H114.286V64.6328C114.286 64.0149 114.802 63.5094 115.433 63.5094H117.843V36.3239H115.433C114.802 36.3239 114.286 35.8184 114.286 35.2006V32.8415H86.5222V35.2006C86.5222 35.8184 86.0059 36.3239 85.3749 36.3239H82.9656V63.5094H85.3749C86.0059 63.5094 86.5222 64.0149 86.5222 64.6328ZM79.2944 65.7561V70.5866H84.2276V65.7561H79.2944ZM84.2276 34.0772V29.2467H79.2944V34.0772H84.2276Z" fill="white"/>
</svg>
