<svg width="192" height="258" viewBox="0 0 192 258" fill="none" xmlns="http://www.w3.org/2000/svg">
<path d="M70.4971 184.289C69.7505 184.289 69.0785 184.161 68.4811 183.905C67.8838 183.638 67.4145 183.265 67.0731 182.785C66.7318 182.305 66.5611 181.745 66.5611 181.105H68.5131C68.5558 181.585 68.7425 181.98 69.0731 182.289C69.4145 182.598 69.8891 182.753 70.4971 182.753C71.1265 182.753 71.6171 182.604 71.9691 182.305C72.3211 181.996 72.4971 181.601 72.4971 181.121C72.4971 180.748 72.3851 180.444 72.1611 180.209C71.9478 179.974 71.6758 179.793 71.3451 179.665C71.0251 179.537 70.5771 179.398 70.0011 179.249C69.2758 179.057 68.6838 178.865 68.2251 178.673C67.7771 178.47 67.3931 178.161 67.0731 177.745C66.7531 177.329 66.5931 176.774 66.5931 176.081C66.5931 175.441 66.7531 174.881 67.0731 174.401C67.3931 173.921 67.8411 173.553 68.4171 173.297C68.9931 173.041 69.6598 172.913 70.4171 172.913C71.4945 172.913 72.3745 173.185 73.0571 173.729C73.7505 174.262 74.1345 174.998 74.2091 175.937H72.1931C72.1611 175.532 71.9691 175.185 71.6171 174.897C71.2651 174.609 70.8011 174.465 70.2251 174.465C69.7025 174.465 69.2758 174.598 68.9451 174.865C68.6145 175.132 68.4491 175.516 68.4491 176.017C68.4491 176.358 68.5505 176.641 68.7531 176.865C68.9665 177.078 69.2331 177.249 69.5531 177.377C69.8731 177.505 70.3105 177.644 70.8651 177.793C71.6011 177.996 72.1985 178.198 72.6571 178.401C73.1265 178.604 73.5211 178.918 73.8411 179.345C74.1718 179.761 74.3371 180.321 74.3371 181.025C74.3371 181.59 74.1825 182.124 73.8731 182.625C73.5745 183.126 73.1318 183.532 72.5451 183.841C71.9691 184.14 71.2865 184.289 70.4971 184.289ZM84.4734 175.361V184.177H82.6494V183.137C82.3614 183.5 81.9827 183.788 81.5134 184.001C81.0547 184.204 80.5641 184.305 80.0414 184.305C79.3481 184.305 78.7241 184.161 78.1694 183.873C77.6254 183.585 77.1934 183.158 76.8734 182.593C76.5641 182.028 76.4094 181.345 76.4094 180.545V175.361H78.2174V180.273C78.2174 181.062 78.4147 181.67 78.8094 182.097C79.2041 182.513 79.7427 182.721 80.4254 182.721C81.1081 182.721 81.6467 182.513 82.0414 182.097C82.4467 181.67 82.6494 181.062 82.6494 180.273V175.361H84.4734ZM88.704 176.673C89.0133 176.246 89.4347 175.9 89.968 175.633C90.512 175.356 91.1147 175.217 91.776 175.217C92.5547 175.217 93.2587 175.404 93.888 175.777C94.5173 176.15 95.0133 176.684 95.376 177.377C95.7387 178.06 95.92 178.844 95.92 179.729C95.92 180.614 95.7387 181.409 95.376 182.113C95.0133 182.806 94.512 183.35 93.872 183.745C93.2427 184.129 92.544 184.321 91.776 184.321C91.0933 184.321 90.4853 184.188 89.952 183.921C89.4293 183.654 89.0133 183.313 88.704 182.897V184.177H86.88V172.337H88.704V176.673ZM94.064 179.729C94.064 179.121 93.936 178.598 93.68 178.161C93.4347 177.713 93.104 177.377 92.688 177.153C92.2827 176.918 91.8453 176.801 91.376 176.801C90.9173 176.801 90.48 176.918 90.064 177.153C89.6587 177.388 89.328 177.729 89.072 178.177C88.8267 178.625 88.704 179.153 88.704 179.761C88.704 180.369 88.8267 180.902 89.072 181.361C89.328 181.809 89.6587 182.15 90.064 182.385C90.48 182.62 90.9173 182.737 91.376 182.737C91.8453 182.737 92.2827 182.62 92.688 182.385C93.104 182.14 93.4347 181.788 93.68 181.329C93.936 180.87 94.064 180.337 94.064 179.729ZM99.8518 176.849V181.729C99.8518 182.06 99.9264 182.3 100.076 182.449C100.236 182.588 100.502 182.657 100.876 182.657H101.996V184.177H100.556C99.7344 184.177 99.1051 183.985 98.6678 183.601C98.2304 183.217 98.0118 182.593 98.0118 181.729V176.849H96.9718V175.361H98.0118V173.169H99.8518V175.361H101.996V176.849H99.8518ZM104.605 174.193C104.274 174.193 103.997 174.081 103.773 173.857C103.549 173.633 103.437 173.356 103.437 173.025C103.437 172.694 103.549 172.417 103.773 172.193C103.997 171.969 104.274 171.857 104.605 171.857C104.925 171.857 105.197 171.969 105.421 172.193C105.645 172.417 105.757 172.694 105.757 173.025C105.757 173.356 105.645 173.633 105.421 173.857C105.197 174.081 104.925 174.193 104.605 174.193ZM105.501 175.361V184.177H103.677V175.361H105.501ZM110.024 176.849V181.729C110.024 182.06 110.098 182.3 110.248 182.449C110.408 182.588 110.674 182.657 111.048 182.657H112.168V184.177H110.728C109.906 184.177 109.277 183.985 108.84 183.601C108.402 183.217 108.184 182.593 108.184 181.729V176.849H107.144V175.361H108.184V173.169H110.024V175.361H112.168V176.849H110.024ZM115.673 172.337V184.177H113.849V172.337H115.673ZM126.148 179.553C126.148 179.884 126.126 180.182 126.084 180.449H119.348C119.401 181.153 119.662 181.718 120.132 182.145C120.601 182.572 121.177 182.785 121.86 182.785C122.841 182.785 123.534 182.374 123.94 181.553H125.908C125.641 182.364 125.156 183.03 124.452 183.553C123.758 184.065 122.894 184.321 121.86 184.321C121.017 184.321 120.26 184.134 119.588 183.761C118.926 183.377 118.404 182.844 118.02 182.161C117.646 181.468 117.46 180.668 117.46 179.761C117.46 178.854 117.641 178.06 118.004 177.377C118.377 176.684 118.894 176.15 119.556 175.777C120.228 175.404 120.996 175.217 121.86 175.217C122.692 175.217 123.433 175.398 124.084 175.761C124.734 176.124 125.241 176.636 125.604 177.297C125.966 177.948 126.148 178.7 126.148 179.553ZM124.244 178.977C124.233 178.305 123.993 177.766 123.524 177.361C123.054 176.956 122.473 176.753 121.78 176.753C121.15 176.753 120.612 176.956 120.164 177.361C119.716 177.756 119.449 178.294 119.364 178.977H124.244Z" fill="#5E6282"/>
<path d="M62.1056 127.657C62.1056 128.364 61.939 129.03 61.6056 129.657C61.2723 130.284 60.739 130.797 60.0056 131.197C59.2723 131.584 58.3323 131.777 57.1856 131.777H54.6656V137.417H52.3856V123.517H57.1856C58.2523 123.517 59.1523 123.704 59.8856 124.077C60.6323 124.437 61.1856 124.93 61.5456 125.557C61.919 126.184 62.1056 126.884 62.1056 127.657ZM57.1856 129.917C58.0523 129.917 58.699 129.724 59.1256 129.337C59.5523 128.937 59.7656 128.377 59.7656 127.657C59.7656 126.137 58.9056 125.377 57.1856 125.377H54.6656V129.917H57.1856ZM66.5602 127.997C66.8935 127.437 67.3335 127.004 67.8802 126.697C68.4402 126.377 69.1002 126.217 69.8602 126.217V128.577H69.2802C68.3868 128.577 67.7068 128.804 67.2402 129.257C66.7868 129.71 66.5602 130.497 66.5602 131.617V137.417H64.2802V126.397H66.5602V127.997ZM76.736 137.597C75.696 137.597 74.756 137.364 73.916 136.897C73.076 136.417 72.416 135.75 71.936 134.897C71.456 134.03 71.216 133.03 71.216 131.897C71.216 130.777 71.4626 129.784 71.956 128.917C72.4493 128.05 73.1226 127.384 73.976 126.917C74.8293 126.45 75.7826 126.217 76.836 126.217C77.8893 126.217 78.8426 126.45 79.696 126.917C80.5493 127.384 81.2226 128.05 81.716 128.917C82.2093 129.784 82.456 130.777 82.456 131.897C82.456 133.017 82.2026 134.01 81.696 134.877C81.1893 135.744 80.496 136.417 79.616 136.897C78.7493 137.364 77.7893 137.597 76.736 137.597ZM76.736 135.617C77.3226 135.617 77.8693 135.477 78.376 135.197C78.896 134.917 79.316 134.497 79.636 133.937C79.956 133.377 80.116 132.697 80.116 131.897C80.116 131.097 79.9626 130.424 79.656 129.877C79.3493 129.317 78.9426 128.897 78.436 128.617C77.9293 128.337 77.3826 128.197 76.796 128.197C76.2093 128.197 75.6626 128.337 75.156 128.617C74.6626 128.897 74.2693 129.317 73.976 129.877C73.6826 130.424 73.536 131.097 73.536 131.897C73.536 133.084 73.836 134.004 74.436 134.657C75.0493 135.297 75.816 135.617 76.736 135.617ZM85.8699 124.937C85.4565 124.937 85.1099 124.797 84.8299 124.517C84.5499 124.237 84.4099 123.89 84.4099 123.477C84.4099 123.064 84.5499 122.717 84.8299 122.437C85.1099 122.157 85.4565 122.017 85.8699 122.017C86.2699 122.017 86.6099 122.157 86.8899 122.437C87.1699 122.717 87.3099 123.064 87.3099 123.477C87.3099 123.89 87.1699 124.237 86.8899 124.517C86.6099 124.797 86.2699 124.937 85.8699 124.937ZM86.9899 139.577C86.9899 140.657 86.7165 141.437 86.1699 141.917C85.6365 142.41 84.8565 142.657 83.8299 142.657H82.6499V140.737H83.4299C83.8965 140.737 84.2232 140.644 84.4099 140.457C84.6099 140.284 84.7099 139.99 84.7099 139.577V126.397H86.9899V139.577ZM100.083 131.637C100.083 132.05 100.057 132.424 100.003 132.757H91.5833C91.65 133.637 91.9766 134.344 92.5633 134.877C93.15 135.41 93.87 135.677 94.7233 135.677C95.95 135.677 96.8166 135.164 97.3233 134.137H99.7833C99.45 135.15 98.8433 135.984 97.9633 136.637C97.0966 137.277 96.0166 137.597 94.7233 137.597C93.67 137.597 92.7233 137.364 91.8833 136.897C91.0566 136.417 90.4033 135.75 89.9233 134.897C89.4566 134.03 89.2233 133.03 89.2233 131.897C89.2233 130.764 89.45 129.77 89.9033 128.917C90.37 128.05 91.0166 127.384 91.8433 126.917C92.6833 126.45 93.6433 126.217 94.7233 126.217C95.7633 126.217 96.69 126.444 97.5033 126.897C98.3166 127.35 98.95 127.99 99.4033 128.817C99.8566 129.63 100.083 130.57 100.083 131.637ZM97.7033 130.917C97.69 130.077 97.39 129.404 96.8033 128.897C96.2166 128.39 95.49 128.137 94.6233 128.137C93.8366 128.137 93.1633 128.39 92.6033 128.897C92.0433 129.39 91.71 130.064 91.6033 130.917H97.7033ZM101.567 131.897C101.567 130.764 101.794 129.77 102.247 128.917C102.714 128.05 103.354 127.384 104.167 126.917C104.98 126.45 105.914 126.217 106.967 126.217C108.3 126.217 109.4 126.537 110.267 127.177C111.147 127.804 111.74 128.704 112.047 129.877H109.587C109.387 129.33 109.067 128.904 108.627 128.597C108.187 128.29 107.634 128.137 106.967 128.137C106.034 128.137 105.287 128.47 104.727 129.137C104.18 129.79 103.907 130.71 103.907 131.897C103.907 133.084 104.18 134.01 104.727 134.677C105.287 135.344 106.034 135.677 106.967 135.677C108.287 135.677 109.16 135.097 109.587 133.937H112.047C111.727 135.057 111.127 135.95 110.247 136.617C109.367 137.27 108.274 137.597 106.967 137.597C105.914 137.597 104.98 137.364 104.167 136.897C103.354 136.417 102.714 135.75 102.247 134.897C101.794 134.03 101.567 133.03 101.567 131.897ZM116.979 128.257V134.357C116.979 134.77 117.073 135.07 117.259 135.257C117.459 135.43 117.793 135.517 118.259 135.517H119.659V137.417H117.859C116.833 137.417 116.046 137.177 115.499 136.697C114.953 136.217 114.679 135.437 114.679 134.357V128.257H113.379V126.397H114.679V123.657H116.979V126.397H119.659V128.257H116.979ZM125.761 137.597C124.894 137.597 124.114 137.444 123.421 137.137C122.741 136.817 122.201 136.39 121.801 135.857C121.401 135.31 121.187 134.704 121.161 134.037H123.521C123.561 134.504 123.781 134.897 124.181 135.217C124.594 135.524 125.107 135.677 125.721 135.677C126.361 135.677 126.854 135.557 127.201 135.317C127.561 135.064 127.741 134.744 127.741 134.357C127.741 133.944 127.541 133.637 127.141 133.437C126.754 133.237 126.134 133.017 125.281 132.777C124.454 132.55 123.781 132.33 123.261 132.117C122.741 131.904 122.287 131.577 121.901 131.137C121.527 130.697 121.341 130.117 121.341 129.397C121.341 128.81 121.514 128.277 121.861 127.797C122.207 127.304 122.701 126.917 123.341 126.637C123.994 126.357 124.741 126.217 125.581 126.217C126.834 126.217 127.841 126.537 128.601 127.177C129.374 127.804 129.787 128.664 129.841 129.757H127.561C127.521 129.264 127.321 128.87 126.961 128.577C126.601 128.284 126.114 128.137 125.501 128.137C124.901 128.137 124.441 128.25 124.121 128.477C123.801 128.704 123.641 129.004 123.641 129.377C123.641 129.67 123.747 129.917 123.961 130.117C124.174 130.317 124.434 130.477 124.741 130.597C125.047 130.704 125.501 130.844 126.101 131.017C126.901 131.23 127.554 131.45 128.061 131.677C128.581 131.89 129.027 132.21 129.401 132.637C129.774 133.064 129.967 133.63 129.981 134.337C129.981 134.964 129.807 135.524 129.461 136.017C129.114 136.51 128.621 136.897 127.981 137.177C127.354 137.457 126.614 137.597 125.761 137.597Z" fill="#1E1D4C"/>
<rect x="41" width="100" height="100" rx="13" fill="#181E4B" fill-opacity="0.98"/>
<path d="M110.826 66.5179C109.869 66.537 108.928 66.2687 108.13 65.7489C107.537 65.3692 106.843 65.1669 106.134 65.1669C105.425 65.1669 104.731 65.3692 104.138 65.7489C103.332 66.2511 102.397 66.5179 101.442 66.5179C100.487 66.5179 99.5519 66.2511 98.7463 65.7489C98.1528 65.3688 97.4589 65.1663 96.7497 65.1663C96.0404 65.1663 95.3466 65.3688 94.753 65.7489C93.9474 66.2511 93.0123 66.5179 92.0573 66.5179C91.1023 66.5179 90.1672 66.2511 89.3616 65.7489C88.7685 65.369 88.0751 65.1667 87.3663 65.1667C86.6576 65.1667 85.9642 65.369 85.3711 65.7489C84.6407 66.2242 83.7883 66.4883 82.9117 66.5111L82.8634 65.1597C83.5109 65.1447 84.1397 64.9441 84.672 64.5827C85.4774 64.0807 86.4123 63.814 87.367 63.814C88.3218 63.814 89.2567 64.0807 90.062 64.5827C90.6555 64.9626 91.3493 65.165 92.0583 65.165C92.7674 65.165 93.4612 64.9626 94.0547 64.5827C94.8604 64.0802 95.7958 63.8132 96.751 63.8132C97.7063 63.8132 98.6417 64.0802 99.4474 64.5827C100.041 64.9626 100.735 65.165 101.444 65.165C102.153 65.165 102.847 64.9626 103.44 64.5827C104.246 64.0807 105.181 63.814 106.136 63.814C107.091 63.814 108.026 64.0807 108.831 64.5827C109.426 64.9635 110.122 65.1664 110.833 65.1664C111.543 65.1664 112.239 64.9635 112.834 64.5827C113.63 64.0645 114.569 63.7967 115.526 63.8151V65.1665C114.814 65.1474 114.114 65.3512 113.529 65.7483C112.729 66.2688 111.786 66.5373 110.826 66.5179Z" fill="white"/>
<path d="M73.2945 66.5176C72.3369 66.537 71.3963 66.2686 70.5992 65.7486C70.0138 65.3513 69.3142 65.1472 68.6022 65.1662V63.8149C69.56 63.7954 70.5009 64.0637 71.2982 64.5838C71.8833 64.9813 72.5827 65.1853 73.2945 65.1662C74.0067 65.1854 74.7064 64.9811 75.2915 64.5831C76.0872 64.0634 77.0265 63.7952 77.9827 63.8149C78.9158 63.7943 79.8334 64.0504 80.6153 64.5493L79.919 65.7155C79.3479 65.3392 78.6709 65.1471 77.9827 65.1662C77.2735 65.1475 76.5768 65.3511 75.994 65.7473C75.196 66.2687 74.2537 66.5376 73.2945 66.5176Z" fill="white"/>
<path d="M110.829 61.7872C109.87 61.8064 108.929 61.5381 108.13 61.0183C107.536 60.6382 106.842 60.4357 106.132 60.4357C105.423 60.4357 104.728 60.6382 104.134 61.0183C103.329 61.5204 102.394 61.787 101.439 61.787C100.484 61.787 99.5491 61.5204 98.7436 61.0183C98.1504 60.6384 97.4569 60.4361 96.748 60.4361C96.0391 60.4361 95.3456 60.6384 94.7524 61.0183C93.9469 61.5205 93.0119 61.7873 92.057 61.7873C91.1022 61.7873 90.1671 61.5205 89.3617 61.0183C88.7684 60.6384 88.0749 60.4361 87.3661 60.4361C86.6572 60.4361 85.9637 60.6384 85.3704 61.0183C84.5734 61.5383 83.6327 61.8067 82.6751 61.7872C81.7175 61.8067 80.7768 61.5383 79.9797 61.0183C79.3949 60.6209 78.6957 60.4169 77.9841 60.4359C77.2727 60.417 76.5738 60.621 75.9892 61.0183C75.1934 61.5377 74.2542 61.8061 73.298 61.7872C72.3402 61.8067 71.3993 61.5384 70.6019 61.0183C70.0159 60.6201 69.3152 60.416 68.6022 60.4359V59.0845C69.5598 59.0651 70.5004 59.3335 71.2975 59.8534C71.8829 60.2508 72.5825 60.4549 73.2945 60.4359C74.0059 60.4548 74.7048 60.2507 75.2895 59.8534C76.0853 59.334 77.0244 59.0657 77.9807 59.0845C78.939 59.0646 79.8805 59.333 80.6781 59.8534C81.2631 60.2509 81.9626 60.455 82.6744 60.4359C83.3862 60.455 84.0857 60.2509 84.6707 59.8534C85.4761 59.3512 86.4112 59.0844 87.3661 59.0844C88.3209 59.0844 89.256 59.3512 90.0614 59.8534C90.6548 60.2334 91.3484 60.4357 92.0574 60.4357C92.7664 60.4357 93.46 60.2334 94.0534 59.8534C94.8588 59.3512 95.7938 59.0844 96.7487 59.0844C97.7036 59.0844 98.6386 59.3512 99.444 59.8534C100.037 60.2334 100.731 60.4357 101.44 60.4357C102.149 60.4357 102.843 60.2334 103.436 59.8534C104.242 59.3514 105.178 59.0847 106.133 59.0847C107.089 59.0847 108.025 59.3514 108.831 59.8534C109.425 60.2333 110.12 60.4355 110.83 60.4355C111.539 60.4355 112.234 60.2333 112.828 59.8534C113.626 59.3338 114.568 59.0655 115.526 59.0845V60.4359C114.812 60.4161 114.111 60.6202 113.525 61.0183C112.727 61.5377 111.786 61.806 110.829 61.7872Z" fill="white"/>
<path d="M110.826 57.0583C109.869 57.0775 108.928 56.8092 108.13 56.2894C107.545 55.8921 106.845 55.688 106.133 55.707C105.611 55.6894 105.092 55.7985 104.623 56.0246L104.014 54.8083C104.673 54.4922 105.4 54.3362 106.133 54.3536C107.092 54.3345 108.034 54.6035 108.832 55.1246C109.427 55.5054 110.123 55.7082 110.833 55.7082C111.544 55.7082 112.24 55.5054 112.835 55.1246C113.631 54.6059 114.57 54.3377 115.526 54.3556V55.707C114.814 55.6879 114.114 55.8917 113.529 56.2887C112.729 56.8093 111.786 57.0778 110.826 57.0583Z" fill="white"/>
<path d="M101.435 57.058C100.479 57.0776 99.5393 56.8095 98.7436 56.2897C98.1501 55.9096 97.4562 55.7071 96.747 55.7071C96.0377 55.7071 95.3439 55.9096 94.7503 56.2897C93.9447 56.7919 93.0096 57.0586 92.0546 57.0586C91.0996 57.0586 90.1645 56.7919 89.3589 56.2897C88.7654 55.9098 88.0717 55.7075 87.3626 55.7075C86.6535 55.7075 85.9598 55.9098 85.3663 56.2897C84.5693 56.8088 83.6293 57.0769 82.6723 57.058C81.7147 57.0773 80.7741 56.809 79.977 56.289C79.3916 55.8917 78.692 55.6876 77.98 55.7066C77.2708 55.6879 76.574 55.8915 75.9912 56.2877C75.194 56.8086 74.2527 57.0774 73.2945 57.058C72.3369 57.0773 71.3963 56.809 70.5992 56.289C70.0138 55.8917 69.3142 55.6876 68.6022 55.7066V54.3553C69.56 54.3358 70.5009 54.6041 71.2982 55.1242C71.8833 55.5217 72.5827 55.7257 73.2945 55.7066C74.0067 55.7258 74.7064 55.5214 75.2915 55.1235C76.0872 54.6037 77.0265 54.3356 77.9827 54.3553C78.9403 54.3359 79.881 54.6043 80.6781 55.1242C81.2631 55.5217 81.9626 55.7257 82.6744 55.7066C83.3864 55.7256 84.086 55.5215 84.6714 55.1242C85.477 54.622 86.4121 54.3552 87.3671 54.3552C88.3221 54.3552 89.2572 54.622 90.0628 55.1242C90.6563 55.5041 91.35 55.7064 92.0591 55.7064C92.7682 55.7064 93.4619 55.5041 94.0554 55.1242C94.8611 54.6216 95.7965 54.3547 96.7518 54.3547C97.7071 54.3547 98.6425 54.6216 99.4482 55.1242C100.056 55.5246 100.777 55.728 101.509 55.7059C101.563 55.7066 101.616 55.7039 101.669 55.6978L101.852 57.037C101.714 57.0528 101.574 57.0598 101.435 57.058Z" fill="white"/>
<path d="M110.829 52.3278C109.87 52.3469 108.929 52.0786 108.13 51.5588C107.536 51.1787 106.842 50.9763 106.132 50.9763C105.423 50.9763 104.728 51.1787 104.134 51.5588C103.329 52.0609 102.394 52.3276 101.439 52.3276C100.484 52.3276 99.5491 52.0609 98.7436 51.5588C98.1504 51.179 97.4569 50.9766 96.748 50.9766C96.0391 50.9766 95.3456 51.179 94.7524 51.5588C93.9469 52.061 93.0119 52.3278 92.057 52.3278C91.1022 52.3278 90.1671 52.061 89.3617 51.5588C88.7684 51.179 88.0749 50.9766 87.3661 50.9766C86.6572 50.9766 85.9637 51.179 85.3704 51.5588C84.5734 52.0789 83.6327 52.3472 82.6751 52.3278C81.7175 52.3472 80.7768 52.0789 79.9797 51.5588C79.3949 51.1615 78.6957 50.9574 77.9841 50.9764C77.2727 50.9575 76.5738 51.1615 75.9892 51.5588C75.1934 52.0783 74.2542 52.3466 73.298 52.3278C72.3402 52.3472 71.3993 52.0789 70.6019 51.5588C70.0159 51.1607 69.3152 50.9566 68.6022 50.9764V49.6251C69.5598 49.6057 70.5004 49.874 71.2975 50.394C71.8829 50.7913 72.5825 50.9954 73.2945 50.9764C74.0059 50.9953 74.7048 50.7913 75.2895 50.394C76.0853 49.8745 77.0244 49.6062 77.9807 49.6251C78.939 49.6051 79.8805 49.8735 80.6781 50.394C81.2631 50.7915 81.9626 50.9955 82.6744 50.9764C83.3862 50.9955 84.0857 50.7915 84.6707 50.394C85.4761 49.8917 86.4112 49.6249 87.3661 49.6249C88.3209 49.6249 89.256 49.8917 90.0614 50.394C90.6548 50.7739 91.3484 50.9763 92.0574 50.9763C92.7664 50.9763 93.46 50.7739 94.0534 50.394C94.8588 49.8917 95.7938 49.6249 96.7487 49.6249C97.7036 49.6249 98.6386 49.8917 99.444 50.394C100.037 50.7739 100.731 50.9763 101.44 50.9763C102.149 50.9763 102.843 50.7739 103.436 50.394C104.242 49.8919 105.178 49.6252 106.133 49.6252C107.089 49.6252 108.025 49.8919 108.831 50.394C109.425 50.7738 110.12 50.9761 110.83 50.9761C111.539 50.9761 112.234 50.7738 112.828 50.394C113.626 49.8743 114.568 49.606 115.526 49.6251V50.9764C114.812 50.9567 114.111 51.1607 113.525 51.5588C112.727 52.0782 111.786 52.3465 110.829 52.3278Z" fill="white"/>
<path d="M100.995 51.7548L99.6932 51.3075C100.029 50.3641 100.166 49.364 100.096 48.3673C100.026 47.3707 99.7516 46.3982 99.2882 45.5082L94.5482 36.4197C94.5014 36.3299 94.4757 36.2311 94.473 36.1303C94.4703 36.0296 94.4906 35.9295 94.5325 35.8375C94.5743 35.7454 94.6367 35.6637 94.715 35.5983C94.7933 35.5329 94.8856 35.4855 94.985 35.4596L104.431 32.9933C104.739 32.9145 105.003 32.7199 105.165 32.4517C105.327 32.1836 105.374 31.8636 105.296 31.5615C105.218 31.2594 105.022 30.9995 104.75 30.8385C104.477 30.6774 104.151 30.6282 103.842 30.7015L92.4091 33.3771C92.1647 33.4337 91.9368 33.5446 91.7432 33.7012C91.5496 33.8578 91.3954 34.056 91.2926 34.2803C91.1898 34.5047 91.1411 34.7492 91.1503 34.9949C91.1595 35.2407 91.2264 35.481 91.3457 35.6974L94.7407 41.8731C94.8269 42.03 94.8462 42.2139 94.7945 42.3848C94.7428 42.5556 94.6243 42.6995 94.4647 42.7852L90.0829 45.1501L89.417 43.9663L93.1999 41.9244L90.1319 36.3379C89.9124 35.9391 89.7896 35.4962 89.7728 35.0435C89.7561 34.5908 89.8459 34.1404 90.0353 33.7271C90.2248 33.3138 90.5087 32.9486 90.8653 32.66C91.2219 32.3713 91.6415 32.1668 92.0916 32.0623L103.519 29.3873C104.184 29.2227 104.889 29.3236 105.478 29.6678C106.067 30.012 106.493 30.5713 106.661 31.2227C106.829 31.8741 106.726 32.5642 106.375 33.1412C106.023 33.7182 105.452 34.1348 104.787 34.2994L96.165 36.5494L100.518 44.8927C101.066 45.9458 101.391 47.0967 101.473 48.276C101.555 49.4552 101.393 50.6386 100.995 51.7548Z" fill="white"/>
<path d="M87.0049 45.2788L78.6193 49.8032L79.285 50.9862L87.6706 46.4617L87.0049 45.2788Z" fill="white"/>
<path d="M107.245 47.2604C106.221 47.2604 105.221 46.9632 104.37 46.4063C103.519 45.8495 102.855 45.0581 102.464 44.1321C102.072 43.2061 101.969 42.1872 102.169 41.2042C102.369 40.2212 102.862 39.3182 103.586 38.6095C104.309 37.9008 105.231 37.4182 106.235 37.2226C107.239 37.0271 108.28 37.1274 109.226 37.511C110.171 37.8945 110.98 38.5441 111.548 39.3774C112.117 40.2108 112.42 41.1905 112.42 42.1928C112.419 43.5364 111.873 44.8245 110.903 45.7745C109.933 46.7246 108.617 47.2589 107.245 47.2604ZM107.245 38.4766C106.494 38.4766 105.761 38.6945 105.137 39.1029C104.512 39.5112 104.026 40.0916 103.739 40.7707C103.451 41.4497 103.376 42.1969 103.523 42.9178C103.669 43.6387 104.031 44.3008 104.561 44.8206C105.092 45.3403 105.768 45.6942 106.505 45.8376C107.241 45.981 108.004 45.9074 108.697 45.6261C109.391 45.3449 109.984 44.8686 110.401 44.2574C110.818 43.6463 111.04 42.9278 111.04 42.1928C111.039 41.2076 110.639 40.2631 109.927 39.5664C109.216 38.8698 108.251 38.4778 107.245 38.4766Z" fill="white"/>
</svg>
